<svg width="301" height="184" viewBox="0 0 301 184" fill="none" xmlns="http://www.w3.org/2000/svg">
<g clip-path="url(#clip0_507_515)">
<path d="M126.268 123.224V179.842" stroke="black" stroke-width="6" stroke-linecap="round" stroke-linejoin="round"/>
<path d="M165.012 104.871L160.063 124.032H188.919C190.456 124.032 191.971 124.368 193.346 125.014C194.721 125.66 195.916 126.597 196.838 127.753C197.76 128.908 198.384 130.249 198.659 131.67C198.933 133.09 198.853 134.552 198.422 135.938L186.89 173.144C186.29 175.076 185.039 176.774 183.326 177.981C181.612 179.189 179.528 179.841 177.386 179.841H110.566C107.941 179.841 105.423 178.862 103.567 177.117C101.71 175.373 100.667 173.007 100.667 170.54V133.334C100.667 130.867 101.71 128.501 103.567 126.756C105.423 125.012 107.941 124.032 110.566 124.032H124.227C126.069 124.031 127.874 123.547 129.439 122.635C131.004 121.723 132.268 120.419 133.087 118.87L150.163 86.8257C152.498 86.8528 154.795 87.3753 156.884 88.3539C158.973 89.3326 160.8 90.7421 162.228 92.4773C163.656 94.2125 164.648 96.2285 165.13 98.3745C165.612 100.521 165.572 102.741 165.012 104.871Z" stroke="black" stroke-width="6" stroke-linecap="round" stroke-linejoin="round"/>
<path d="M83.7413 20.643C98.1898 15.8995 105.414 13.5277 109.158 17.0723C112.901 20.617 110.405 27.4655 105.412 41.1626L104.79 42.8694C100.642 54.2516 98.5672 59.9427 93.8386 61.0627C89.11 62.1828 84.7174 58.0235 75.932 49.705L74.7537 48.5893C65.9684 40.2708 61.5757 36.1116 62.7534 31.6293C63.9311 27.147 69.9343 25.176 81.9409 21.2341L83.7413 20.643Z" fill="white" stroke="#0F172B" stroke-width="1.5" stroke-linecap="round" stroke-linejoin="round"/>
<rect width="21.6343" height="22.5979" rx="1" transform="matrix(0.726135 0.687551 -0.725525 0.688195 84.4629 26.165)" fill="#0F172B"/>
<path d="M217.235 39.2085L251.486 22.2672L253.57 26.0129L253.015 28.9409L221.101 44.1954L218.856 42.1218L217.235 39.2085Z" fill="#2A9D90"/>
<path d="M226.034 24.4792L233.579 23.3867L235.585 25.0311L242.337 19.5976L243.859 26.219L229.559 32.7394L227.648 27.3697L226.034 24.4792Z" fill="#E76E50"/>
<path d="M229.202 43.0193L247.923 33.7992L263.453 51.884L236.222 65.2951L229.202 43.0193Z" fill="#2A9D90"/>
<ellipse cx="6.60525" cy="7.07649" rx="6.60525" ry="7.07649" transform="matrix(0.89767 -0.44114 0.488652 0.872731 234.746 45.0166)" fill="#F5F5F5"/>
<path d="M251.455 21.9554L244.286 25.4837L243.195 19.7414C243.14 19.4554 242.932 19.2137 242.649 19.1065C242.365 18.9991 242.048 19.0421 241.815 19.2196L235.465 24.0579L234.911 23.0682C234.746 22.7716 234.412 22.5958 234.067 22.6232L226.347 23.2397C226.085 23.2611 225.851 23.3971 225.714 23.6103C225.577 23.8225 225.554 24.0867 225.649 24.3255L229.109 32.954L217.054 38.8875C216.641 39.0909 216.489 39.5817 216.714 39.9837L218.138 42.5322C219.148 44.339 221.478 45.0665 223.332 44.1541L252.504 29.7953C254.358 28.883 255.044 26.6708 254.034 24.8641L252.609 22.3155C252.384 21.9133 251.868 21.752 251.455 21.9554ZM236.294 25.5407L241.781 21.3606L242.712 26.2584L237.994 28.5809L236.294 25.5407ZM227.636 24.7784L233.69 24.295L234.463 25.677L236.498 29.3173L230.618 32.2116L227.636 24.7784ZM252.538 25.6C253.099 26.6037 252.719 27.8322 251.69 28.3387L222.518 42.6976C221.489 43.204 220.195 42.7993 219.634 41.7957L218.616 39.9754L230.582 34.086L238.058 30.4061C238.058 30.4061 238.06 30.4059 238.06 30.4056L244.068 27.4487C244.068 27.4483 244.069 27.4476 244.07 27.4472L251.521 23.7798L252.538 25.6Z" fill="black"/>
<path d="M248.788 32.8071C248.529 32.505 248.089 32.4134 247.735 32.587L228.291 42.1426C227.938 42.3163 227.768 42.7079 227.886 43.0792L235.215 66.2341C235.29 66.4694 235.469 66.6629 235.706 66.7618C235.941 66.8608 236.207 66.8547 236.431 66.7448L241.641 64.1844L243.261 67.0787L244.75 66.3472L243.129 63.4529L258.015 56.1376L259.635 59.0319L261.124 58.3003L259.503 55.406L264.713 52.8457C264.937 52.7357 265.094 52.5338 265.14 52.2963C265.188 52.058 265.12 51.8095 264.956 51.6186L248.788 32.8071ZM258.693 53.9587L257.204 54.6902L242.319 62.0055L240.83 62.7371L236.533 64.8491L229.709 43.2909L247.938 34.3324L262.991 51.8464L258.693 53.9587Z" fill="black"/>
<path d="M240.578 42.1401C236.888 43.9533 235.521 48.3464 237.529 51.9328C239.537 55.5192 244.173 56.9624 247.862 55.1492C251.552 53.3361 252.92 48.9429 250.911 45.3565C248.903 41.7701 244.268 40.3268 240.578 42.1401ZM247.053 53.7039C244.184 55.1139 240.578 53.992 239.016 51.2023C237.454 48.4126 238.518 44.9958 241.388 43.5858C241.96 43.3046 242.562 43.1284 243.17 43.0417L243.404 49.4584L245.096 49.4512L244.863 43.036C246.725 43.2871 248.463 44.3696 249.425 46.0873C250.987 48.877 249.923 52.2938 247.053 53.7039Z" fill="black"/>
<rect x="0.67292" y="0.217173" width="34.8816" height="34.8821" rx="3.5" transform="matrix(0.890099 -0.455767 0.455741 0.890112 -0.02502 79.5976)" fill="#F8FAFC"/>
<rect x="0.67292" y="0.217173" width="34.8816" height="34.8821" rx="3.5" transform="matrix(0.890099 -0.455767 0.455741 0.890112 -0.02502 79.5976)" stroke="black"/>
<path d="M22.8556 77.6515C22.8556 77.6515 25.9322 80.1175 23.7764 81.2213C21.5041 82.3848 18.751 76.7207 19.7794 75.1863C19.7794 75.1863 14.592 78.6154 16.0392 84.8344C15.128 83.9404 13.8882 82.5092 13.8227 81.2669C13.8227 81.2669 12.4865 83.9717 14.5356 87.9737C16.5846 91.9756 20.0512 95.2034 25.8001 92.2597C31.5489 89.3161 30.9563 84.6157 29.3174 81.4146C26.8587 76.6126 22.8556 77.6515 22.8556 77.6515Z" fill="#F4900C"/>
<path d="M34.2249 87.9459C34.0423 88.0394 33.9033 88.1994 33.8383 88.3907C33.7734 88.582 33.7878 88.7889 33.8785 88.966L36.2489 93.5956C36.3395 93.7727 36.499 93.9054 36.6922 93.9645C36.8853 94.0236 37.0964 94.0043 37.2789 93.9109C37.4615 93.8174 37.6005 93.6574 37.6655 93.4661C37.7304 93.2748 37.716 93.0679 37.6253 92.8908L35.2549 88.2612C35.1643 88.0841 35.0048 87.9514 34.8116 87.8923C34.6185 87.8332 34.4074 87.8525 34.2249 87.9459Z" fill="black"/>
<path d="M21.8595 98.3925L22.2533 96.3198C22.29 96.1271 22.2497 95.9251 22.1414 95.7583C22.0331 95.5915 21.8657 95.4736 21.6759 95.4304C21.4862 95.3872 21.2896 95.4224 21.1296 95.5281C20.9695 95.6338 20.859 95.8014 20.8224 95.9941L20.3789 98.3279L19.6399 98.7063L18.6462 96.7655C18.5555 96.5884 18.4008 96.4533 18.216 96.3899C18.0312 96.3265 17.8315 96.3399 17.6608 96.4273C17.4902 96.5147 17.3625 96.6689 17.3059 96.8559C17.2494 97.0429 17.2685 97.2474 17.3592 97.4245L19.7296 102.054C19.8202 102.231 19.975 102.366 20.1598 102.43C20.3446 102.493 20.5443 102.48 20.7149 102.392C20.8856 102.305 21.0133 102.151 21.0698 101.964C21.1264 101.777 21.1073 101.572 21.0166 101.395L20.3236 100.042L21.0768 99.6559L23.358 100.622C23.4475 100.661 23.5431 100.681 23.6392 100.682C23.7353 100.683 23.8302 100.665 23.9182 100.628C24.0062 100.591 24.0857 100.537 24.1521 100.468C24.2185 100.399 24.2705 100.317 24.305 100.226C24.3396 100.135 24.356 100.038 24.3534 99.9399C24.3508 99.8416 24.3292 99.7443 24.2898 99.6535C24.2504 99.5627 24.1941 99.4802 24.124 99.4108C24.054 99.3414 23.9716 99.2865 23.8816 99.2492L21.8595 98.3925Z" fill="black"/>
<path d="M26.1591 96.0054L27.1565 95.4947C27.3241 95.4089 27.4503 95.2593 27.5074 95.0789C27.5645 94.8984 27.5479 94.7018 27.4611 94.5323C27.3744 94.3629 27.2246 94.2345 27.0448 94.1753C26.865 94.1162 26.6698 94.1311 26.5023 94.2169L25.5049 94.7276C24.9634 95.0049 24.5556 95.4883 24.371 96.0715C24.1864 96.6548 24.2402 97.2901 24.5206 97.8377C24.8009 98.3854 25.2849 98.8004 25.866 98.9916C26.4472 99.1828 27.0778 99.1344 27.6192 98.8572L28.6167 98.3465C28.7842 98.2607 28.9104 98.1111 28.9675 97.9306C29.0246 97.7501 29.008 97.5536 28.9212 97.3841C28.8345 97.2147 28.6847 97.0862 28.5049 97.0271C28.3251 96.9679 28.1299 96.9829 27.9624 97.0687L26.965 97.5794C26.7586 97.685 26.5183 97.7035 26.2968 97.6306C26.0753 97.5577 25.8908 97.3995 25.784 97.1908C25.6771 96.9821 25.6566 96.74 25.7269 96.5177C25.7973 96.2954 25.9528 96.1111 26.1591 96.0054Z" fill="black"/>
<path d="M34.3951 93.8294L34.1798 93.9397C34.0681 93.9967 33.9394 94.0091 33.8219 93.974C33.7043 93.9389 33.6075 93.8593 33.5528 93.7526L33.3113 93.281C33.0369 92.745 32.5512 92.345 31.9611 92.1689C31.3709 91.9928 30.7247 92.055 30.1645 92.3418C29.6043 92.6286 29.176 93.1166 28.9739 93.6984C28.7718 94.2802 28.8125 94.9081 29.0869 95.4441L29.132 95.5322C29.328 95.9155 29.634 96.2327 30.0142 96.4465C30.3944 96.6604 30.8331 96.7622 31.2791 96.74C31.7251 96.7179 32.16 96.5726 32.533 96.3213C32.906 96.07 33.2016 95.723 33.3855 95.3208C33.8557 95.4544 34.3675 95.4019 34.8119 95.1743L35.0273 95.064C35.1984 94.9764 35.3292 94.8273 35.391 94.6496C35.4527 94.4719 35.4403 94.2801 35.3565 94.1163C35.2726 93.9526 35.1243 93.8304 34.944 93.7766C34.7637 93.7228 34.5663 93.7418 34.3951 93.8294ZM31.6467 95.2368C31.4287 95.3481 31.1774 95.3721 30.9479 95.3036C30.7184 95.2351 30.5295 95.0797 30.4225 94.8714L30.3774 94.7833C30.2706 94.5748 30.2548 94.3305 30.3334 94.1042C30.4121 93.8778 30.5787 93.688 30.7966 93.5764C31.0145 93.4648 31.2659 93.4406 31.4955 93.5091C31.7251 93.5777 31.914 93.7333 32.0208 93.9418L32.0659 94.0299C32.1724 94.2385 32.188 94.4826 32.1094 94.7089C32.0308 94.9351 31.8644 95.125 31.6467 95.2368Z" fill="black"/>
<path d="M220.624 113.221C237.654 113.695 231.674 136.356 248.704 136.829L265.752 116.551C248.722 116.077 254.702 93.4156 237.672 92.9421L220.624 113.221Z" fill="#FFD230"/>
<path d="M212.66 122.694L220.624 113.221M220.624 113.221C237.654 113.695 231.674 136.356 248.704 136.829L265.752 116.551C248.722 116.077 254.702 93.4156 237.672 92.9421L220.624 113.221Z" stroke="#020618" stroke-width="1.5" stroke-linecap="round" stroke-linejoin="round"/>
<path d="M59.1435 162.329C65.3982 162.329 70.4686 157.258 70.4686 151.003C70.4686 144.748 65.3982 139.678 59.1435 139.678C52.8888 139.678 47.8184 144.748 47.8184 151.003C47.8184 157.258 52.8888 162.329 59.1435 162.329Z" fill="#5C913B"/>
<path d="M65.4336 106.958C68.9084 106.958 71.7253 104.141 71.7253 100.666C71.7253 97.191 68.9084 94.374 65.4336 94.374C61.9587 94.374 59.1418 97.191 59.1418 100.666C59.1418 104.141 61.9587 106.958 65.4336 106.958Z" fill="#FFCC4D"/>
<path d="M142.194 67.9493C147.058 67.9493 151.002 64.0056 151.002 59.1407C151.002 54.2758 147.058 50.332 142.194 50.332C137.329 50.332 133.385 54.2758 133.385 59.1407C133.385 64.0056 137.329 67.9493 142.194 67.9493Z" fill="#9266CC"/>
<path d="M188.549 43.288C194.284 41.6365 198.24 44.2456 199.182 47.67C200.124 51.0915 198.083 55.4232 192.351 57.0687C190.113 57.7091 189.441 58.8001 189.532 59.147C189.63 59.4969 190.767 60.0721 192.999 59.4287C198.731 57.7832 202.687 60.3923 203.629 63.8137C204.577 67.2382 202.53 71.5639 196.795 73.2124C194.56 73.8528 193.886 74.9468 193.985 75.2937C194.081 75.6406 195.214 76.2158 197.449 75.5754C197.82 75.4584 198.21 75.4184 198.597 75.4577C198.983 75.497 199.357 75.6149 199.698 75.8042C200.039 75.9936 200.339 76.2507 200.581 76.5604C200.823 76.87 201.002 77.2259 201.107 77.6072C201.211 77.9884 201.24 78.3871 201.192 78.7799C201.143 79.1727 201.018 79.5516 200.823 79.8942C200.628 80.2368 200.369 80.5361 200.059 80.7746C199.749 81.0131 199.395 81.1859 199.019 81.2827C193.29 82.9282 189.331 80.3251 188.383 76.8977C187.442 73.4762 189.485 69.1505 195.223 67.502C197.461 66.8587 198.132 65.7705 198.034 65.4207C197.941 65.0738 196.807 64.4957 194.575 65.1361C188.837 66.7845 184.884 64.1814 183.939 60.751C182.994 57.3296 185.038 53.0038 190.773 51.3524C193.005 50.715 193.677 49.618 193.584 49.274C193.485 48.9242 192.354 48.349 190.119 48.9894C189.745 49.1178 189.35 49.1673 188.957 49.135C188.564 49.1026 188.181 48.989 187.833 48.8012C187.484 48.6134 187.177 48.3551 186.929 48.0423C186.682 47.7294 186.499 47.3684 186.392 46.9813C186.286 46.5941 186.257 46.1889 186.309 45.7903C186.361 45.3916 186.492 45.0079 186.693 44.6624C186.895 44.3169 187.164 44.0169 187.483 43.7806C187.802 43.5444 188.165 43.3767 188.549 43.288Z" fill="#77B255"/>
<path d="M273.434 134.221C273.158 133.993 272.939 133.703 272.795 133.374C272.652 133.045 272.587 132.686 272.607 132.326C272.626 131.966 272.729 131.615 272.908 131.3C273.087 130.986 273.336 130.717 273.636 130.516C281.218 125.421 291.931 116.149 292.012 111.492C292.025 110.967 291.906 110.342 290.986 109.694C289.216 108.45 286.451 112.122 286.423 112.16C286.25 112.415 286.028 112.634 285.77 112.804C285.512 112.973 285.223 113.089 284.921 113.146C284.619 113.203 284.309 113.198 284.009 113.133C283.709 113.068 283.426 112.944 283.176 112.767C282.926 112.591 282.714 112.366 282.553 112.105C282.392 111.845 282.284 111.555 282.237 111.251C282.189 110.947 282.203 110.637 282.277 110.338C282.351 110.038 282.483 109.756 282.667 109.508C284.521 106.889 289.204 102.764 293.665 105.906C295.655 107.309 296.669 109.249 296.629 111.533C296.476 120.285 279.572 132.072 276.185 134.349C275.771 134.627 275.28 134.764 274.784 134.741C274.289 134.718 273.815 134.536 273.434 134.221Z" fill="#77B255"/>
<path d="M18.6002 59.1462C18.1361 59.1248 17.7088 58.9642 17.3771 58.6865C17.0454 58.4088 16.8257 58.0277 16.7482 57.5958C16.6707 57.1638 16.7393 56.7022 16.9445 56.2746C17.1496 55.847 17.4813 55.4744 17.8938 55.2082C18.451 54.8493 31.7057 46.4852 47.7684 49.5099C48.0605 49.5559 48.3325 49.6593 48.5682 49.8138C48.8039 49.9683 48.9985 50.1708 49.1405 50.4094C49.2826 50.6479 49.3691 50.9176 49.395 51.2025C49.4209 51.4875 49.3857 51.7818 49.2914 52.0681C49.1971 52.3544 49.0457 52.6268 48.8461 52.8693C48.6465 53.1117 48.4028 53.3193 48.1294 53.4796C47.856 53.6399 47.5585 53.7498 47.2545 53.8027C46.9505 53.8556 46.6462 53.8504 46.3596 53.7875C32.1653 51.1295 20.2045 58.6566 20.087 58.7325C19.6338 59.0235 19.1094 59.1694 18.6002 59.1462Z" fill="#AA8DD8"/>
<path d="M226.55 183.403C226.298 183.609 226.009 183.762 225.698 183.854C225.387 183.945 225.061 183.974 224.739 183.938C222.598 183.704 220.797 182.953 219.537 181.766C218.202 180.51 217.543 178.824 217.724 177.136C218.039 174.171 220.99 171.45 226.019 171.997C227.976 172.209 228.849 171.575 228.878 171.271C228.913 170.97 228.195 170.162 226.239 169.948C224.098 169.714 222.297 168.963 221.034 167.777C219.699 166.521 219.038 164.835 219.221 163.146C219.542 160.182 222.489 157.461 227.514 158.01C228.94 158.165 229.693 157.869 230.011 157.677C230.265 157.52 230.366 157.371 230.376 157.284C230.405 156.983 229.697 156.175 227.736 155.961C227.414 155.926 227.102 155.828 226.817 155.671C226.533 155.515 226.282 155.303 226.079 155.048C225.876 154.794 225.725 154.501 225.634 154.188C225.543 153.874 225.515 153.545 225.551 153.22C225.585 152.896 225.682 152.581 225.837 152.294C225.992 152.007 226.202 151.755 226.455 151.55C226.707 151.345 226.997 151.193 227.308 151.101C227.619 151.01 227.945 150.981 228.267 151.017C233.292 151.562 235.601 154.852 235.282 157.819C234.962 160.788 232.014 163.504 226.984 162.96C225.558 162.803 224.813 163.101 224.492 163.293C224.238 163.447 224.135 163.599 224.125 163.683C224.093 163.987 224.806 164.793 226.767 165.006C231.792 165.554 234.101 168.841 233.782 171.808C233.464 174.773 230.516 177.494 225.489 176.944C224.063 176.79 223.313 177.088 222.993 177.277C222.736 177.436 222.637 177.586 222.628 177.67C222.595 177.971 223.308 178.779 225.267 178.993C225.752 179.046 226.211 179.243 226.585 179.558C226.959 179.874 227.232 180.294 227.369 180.766C227.507 181.238 227.502 181.74 227.356 182.21C227.21 182.679 226.93 183.094 226.55 183.403Z" fill="#AA8DD8"/>
</g>
<defs>
<clipPath id="clip0_507_515">
<rect width="300.028" height="183.953" fill="white"/>
</clipPath>
</defs>
</svg>
